<?xml version="1.0" encoding="UTF-8"?>
<svg id="Layer_1" xmlns="http://www.w3.org/2000/svg" version="1.1" viewBox="0 0 675 96">
  <!-- Generator: Adobe Illustrator 29.1.0, SVG Export Plug-In . SVG Version: 2.1.0 Build 142)  -->
  <defs>
    <style>
      .st0 {
        fill: #f5f2ed;
      }
    </style>
  </defs>
  <path class="st0" d="M646,91.7c-7.1,0-13.2-1.1-18.3-3.2-5.2-2.2-9.2-5.2-12.1-9l9.4-8.5c2.7,2.9,5.7,5.2,9.1,6.7,3.5,1.6,7.5,2.4,12.1,2.4s7.2-.7,9.6-2c2.4-1.3,3.6-3.4,3.6-6.1s-.8-3.9-2.5-4.7c-1.6-.8-3.7-1.5-6.4-1.9l-10.3-1.6c-2.7-.4-5.3-1-7.9-1.7-2.5-.8-4.7-2-6.7-3.4-1.9-1.4-3.4-3.2-4.6-5.4-1.2-2.2-1.7-4.9-1.7-8.1,0-6.7,2.5-11.9,7.5-15.5,5.1-3.6,12-5.4,20.8-5.4s11.5.9,15.8,2.6c4.4,1.7,8,4.2,10.8,7.4l-8.4,9.2c-1.8-2-4.3-3.7-7.4-5.2-3-1.6-6.8-2.4-11.5-2.4-8.1,0-12.2,2.5-12.2,7.6s.8,3.9,2.5,4.9c1.7.8,3.8,1.5,6.5,1.9l10.2,1.6c2.7.4,5.4,1,7.9,1.9,2.6.7,4.8,1.8,6.7,3.2,2,1.4,3.6,3.2,4.7,5.4,1.2,2.2,1.7,4.8,1.7,8,0,6.6-2.6,11.9-7.7,15.7-5.1,3.7-12.2,5.6-21.3,5.6Z"/>
  <path class="st0" d="M601.4,25.9v52.7h12.1v11.6h-28.1v-11.3h-.6c-1.4,3.5-3.6,6.5-6.5,9-3,2.6-7.1,3.9-12.3,3.9s-11.4-2.1-15.3-6.4c-4-4.2-6-10.1-6-18V25.9h16v39.3c0,9.3,4,14,12.1,14s3.2-.2,4.7-.6c1.5-.4,2.9-1.1,4.1-2,1.2-.8,2.1-1.9,2.9-3.1.7-1.2,1-2.7,1-4.5V25.9h16Z"/>
  <path class="st0" d="M498.8,78.6h11.9v-41.6h-11.9v-11.1h27.9v52.7h12.2v11.6h-40.1v-11.6Z"/>
  <path class="st0" d="M560.3,5.1h-61.5v11.2h61.5V5.1Z"/>
  <path class="st0" d="M466.6,90.2c-10.7,0-18-6.6-18-17.5v-35.7h-11.9v-11.1h5.9c4.8,0,7.1-2.3,7.1-7.1V5.2h14.8s0,20.7,0,20.7h26.2v11.1h-26.2v41.6h26.2v11.6h-24.2Z"/>
  <path class="st0" d="M403.8,91.7c-4.9,0-9.3-.8-13.2-2.4-3.9-1.6-7.2-3.8-10-6.7-2.7-2.9-4.7-6.4-6.2-10.6-1.4-4.2-2.1-8.8-2.1-14s.7-9.8,2.1-14c1.5-4.2,3.6-7.7,6.2-10.6,2.7-2.9,6-5.2,9.8-6.7,3.9-1.6,8.3-2.4,13.2-2.4s12.3,1.4,16.5,4.2c4.2,2.8,7.3,6.6,9.5,11.2l-12.3,6.7c-1.2-2.7-2.8-4.9-5-6.6-2.1-1.7-4.9-2.6-8.6-2.6-12.3,0-15.8,11-15.5,21.8.3,10.4,4.2,19.6,15.7,19.6s6.9-.9,9.1-2.6c2.3-1.7,4.2-4.1,5.6-7l12,7.1c-2.2,4.6-5.4,8.3-9.8,11.2-4.3,2.8-10,4.2-17,4.2Z"/>
  <path class="st0" d="M243.3,78.6h12.1v-41.6h-12.1v-11.1h28v17.6h1c.6-2.2,1.4-4.4,2.4-6.5,1.1-2.2,2.4-4,4-5.6,1.7-1.7,3.7-3,6-4,2.3-1,5.1-1.5,8.4-1.5h7v15h-13.2c-4.8,0-8.6,1.4-11.3,4.2-2.7,2.8-4.1,6.4-4.1,10.8v22.7h12v11.6h-40.1v-11.6Z"/>
  <path class="st0" d="M207.5,91.7c-5.2,0-9.7-.8-13.7-2.4-4-1.6-7.4-3.8-10.1-6.7-2.7-2.9-4.7-6.4-6.1-10.5-1.4-4.2-2.1-8.8-2.1-14s.7-9.9,2.1-14.1c1.5-4.2,3.6-7.7,6.2-10.6,2.7-2.9,5.9-5.2,9.6-6.7,3.8-1.6,8.1-2.4,12.8-2.4s8.9.8,12.6,2.4c3.7,1.5,6.9,3.7,9.5,6.5,2.7,2.8,4.7,6.2,6.1,10.2,1.4,4,2.1,8.4,2.1,13.2v5.2h-45.1v1.6c0,4.7,1.5,8.4,4.4,11.3,2.9,2.8,7,4.2,12.2,4.2s7.4-.8,10.2-2.4c2.9-1.7,5.3-3.8,7.2-6.5l9.1,9.1c-2.3,3.4-5.7,6.3-10.2,8.7-4.4,2.4-10,3.6-16.8,3.6ZM206.4,36.1c-4.5,0-8.1,1.4-10.8,4.2-2.7,2.8-4.1,6.6-4.1,11.2v.9h29.2v-1.1c0-4.7-1.3-8.4-3.9-11.1-2.5-2.7-5.9-4.1-10.3-4.1Z"/>
  <path class="st0" d="M146.6,90.2c-10.7,0-18-6.6-18-17.5v-35.7h-11.9v-11.1h5.9c4.8,0,7.1-2.3,7.1-7.1V5.2h14.8s0,20.7,0,20.7h26.2v11.1h-26.2v41.6h26.2v11.6h-24.2Z"/>
  <path class="st0" d="M52.2,90.2v-53.2h-12.1v-11.1h28.1v11.3h.6c1.4-3.5,3.6-6.5,6.5-9,3-2.6,7.1-3.9,12.3-3.9s11.4,2.1,15.3,6.4c4,4.2,6,10.1,6,18v41.5h-16v-39.3c0-9.3-4-14-12.1-14s-3.2.2-4.7.6c-1.5.4-2.9,1.1-4.1,2-1.2.8-2.1,1.9-2.9,3.1-.7,1.2-1,2.7-1,4.5v43h-16Z"/>
  <path class="st0" d="M0,78.6h11.9v-41.6H0v-11.1h27.9v52.7h12.2v11.6H0v-11.6Z"/>
  <path class="st0" d="M27.9,5.1H0v11.2h27.8V5.1Z"/>
  <path class="st0" d="M357.5,90.2c-3.9,0-6.9-1-9.1-2.9-2.1-2-3.3-4.7-3.7-8.2h-.6c-1.2,4-3.5,7.1-6.9,9.4-3.4,2.2-7.6,3.2-12.6,3.2s-11.6-1.7-15.5-5.1c-3.8-3.4-5.7-8.1-5.7-14.2,0-13,9.5-19.4,28.5-19.4h11.3v-4.2c0-4.1-1-7.1-3-9.2-2-2.1-5.2-3.1-9.7-3.1s-7.4.8-9.8,2.4c-2.5,1.6-4.6,3.6-6.4,6.1l-9.1-7.7c2-3.6,5.2-6.6,9.6-9,4.5-2.5,10.3-3.7,17.3-3.7s15.1,2,19.8,6c4.8,3.9,7.2,9.8,7.2,17.6v30.3h7.6v12h-9.4ZM330,80.7c3.8,0,7-.9,9.5-2.6,2.6-1.8,3.9-4.3,3.9-7.4v-8.6h-11c-8.7,0-13.1,2.7-13.1,8.2v2.5c0,2.6,1,4.5,2.9,5.9,1.9,1.3,4.5,2,7.9,2Z"/>
</svg>